<?xml version="1.0" encoding="UTF-8"?>
<!DOCTYPE svg PUBLIC "-//W3C//DTD SVG 1.1//EN" "http://www.w3.org/Graphics/SVG/1.1/DTD/svg11.dtd">
<svg xmlns="http://www.w3.org/2000/svg" xml:space="preserve" width="50mm" height="50mm" version="1.1" style="shape-rendering:geometricPrecision; text-rendering:geometricPrecision; image-rendering:optimizeQuality; fill-rule:evenodd; clip-rule:evenodd"
viewBox="0 0 5000 5000">
 <defs>
  <style type="text/css">
   <![CDATA[
    .fil0 {fill:white}
    .fil1 {fill:black;fill-rule:nonzero}
   ]]>
  </style>
 </defs>
 <g id="Livello_x0020_1">
  <metadata id="CorelCorpID_0Corel-Layer"/>
  <circle class="fil0" cx="2493.87" cy="2506.13" r="2500"/>
  <path class="fil1" d="M1137.64 3327.98c-128.61,0 -240.73,-19.78 -336.36,-59.35 -95.63,-39.21 -170.02,-97.84 -223.14,-175.86 -53.49,-78.06 -81.72,-174.8 -84.26,-289.83l326.1 0c4.39,52.76 20.15,97.45 47.26,133.72 27.1,35.91 63.74,63.02 109.54,80.99 45.81,17.94 98.57,26.74 157.93,26.74 57.15,0 107,-8.07 149.48,-24.56 42.87,-16.49 75.48,-39.57 98.93,-69.25 23.08,-29.68 34.82,-64.47 34.82,-103.68 0,-35.91 -10.62,-65.95 -31.53,-90.13 -21.24,-24.2 -52,-45.07 -92.33,-62.29 -40.66,-17.24 -89.76,-32.61 -147.64,-46.16l-175.13 -42.87c-134.48,-32.25 -240.76,-83.56 -318.78,-154.26 -78.05,-70.34 -116.9,-164.52 -116.9,-282.87 0,-96.35 26.38,-181 78.78,-253.55 52.76,-72.91 124.58,-129.33 215.83,-169.63 91.21,-40.69 195.28,-60.84 311.79,-60.84 118.71,0 222.42,20.52 310.73,61.2 88.67,40.67 157.53,97.45 207.38,169.63 49.46,72.19 75.09,155.72 76.57,250.26l-325.01 0c-5.86,-62.29 -32.61,-111.03 -80.23,-146.19 -47.65,-34.82 -111.75,-52.39 -192.74,-52.39 -54.22,0 -100.75,7.68 -138.86,23.08 -38.46,15.4 -67.41,36.64 -87.56,63.74 -19.78,27.11 -30.04,58.27 -30.04,93.45 0,37 11.35,68.5 34.43,93.79 22.72,25.65 53.49,46.17 91.61,62.29 38.45,16.12 80.59,29.68 126.4,40.3l142.52 35.55c69.61,15.76 133.75,36.63 192.38,62.65 58.6,26.02 109.54,58.27 152.78,95.99 43.23,38.12 76.93,82.44 100.41,133.75 23.81,51.28 35.52,109.91 35.52,176.59 0,98.2 -24.54,182.85 -73.64,255.03 -49.1,71.8 -119.81,127.13 -211.78,166.34 -92.33,38.84 -204.08,58.62 -335.26,58.62zm1462.32 -1622.05l0 1599.34 -337.11 0 0 -1599.34 337.11 0zm1893.91 0l0 1599.34 -292 0 -694.71 -1005.77 -13.92 -1.09 0 1006.86 -337.1 0 0 -1599.34 296.42 0 690.31 1005.77 13.92 0 0 -1005.77 337.08 0z"/>
 </g>
</svg>
